<?xml version="1.0" encoding="UTF-8" standalone="no"?>
<!-- Created with Inkscape (http://www.inkscape.org/) -->

<svg
   width="68.037994mm"
   height="67.499992mm"
   viewBox="0 0 68.037994 67.499992"
   version="1.1"
   id="svg1"
   inkscape:version="1.4.4 (dcaf3e7d9e, 2026-05-05)"
   sodipodi:docname="allStationsLondonUnderground.svg"
   xmlns:inkscape="http://www.inkscape.org/namespaces/inkscape"
   xmlns:sodipodi="http://sodipodi.sourceforge.net/DTD/sodipodi-0.dtd"
   xmlns="http://www.w3.org/2000/svg"
   xmlns:svg="http://www.w3.org/2000/svg">
  <sodipodi:namedview
     id="namedview1"
     pagecolor="#ffffff"
     bordercolor="#999999"
     borderopacity="1"
     inkscape:showpageshadow="2"
     inkscape:pageopacity="0"
     inkscape:pagecheckerboard="false"
     inkscape:deskcolor="#d1d1d1"
     inkscape:document-units="mm"
     inkscape:zoom="2.0000001"
     inkscape:cx="-72.499996"
     inkscape:cy="118.74999"
     inkscape:window-width="3440"
     inkscape:window-height="1366"
     inkscape:window-x="0"
     inkscape:window-y="0"
     inkscape:window-maximized="1"
     inkscape:current-layer="svg1" />
  <defs
     id="defs1">
    <rect
       x="0"
       y="0"
       width="257.15147"
       height="255.11808"
       id="rect1" />
  </defs>
  <g
     id="g11"
     transform="matrix(0.61365838,0,0,0.61365838,-12.005381,-12.275622)">
    <path
       d="m 0.626,-54.996 a 55,55 0 0 1 28.581,8.392 l -4.866,7.572 A 46,46 0 0 0 0.626,-45.996 Z"
       transform="translate(75,75)"
       role="presentation"
       shape-rendering="auto"
       style="fill:#a45a2a;stroke:#ffffff;stroke-width:0px"
       id="path1" />
    <path
       d="m 30.26,-45.928 a 55,55 0 0 1 19.507,22.512 l -8.188,3.74 a 46,46 0 0 0 -16.185,-18.68 z"
       transform="translate(75,75)"
       role="presentation"
       shape-rendering="auto"
       style="fill:#da291c;stroke:#ffffff;stroke-width:0px"
       id="path2" />
    <path
       d="m 50.286,-22.277 a 55,55 0 0 1 4.24,29.484 l -8.909,-1.28 a 46,46 0 0 0 -3.518,-24.465 z"
       transform="translate(75,75)"
       role="presentation"
       shape-rendering="auto"
       style="fill:#ffcd00;stroke:#ffffff;stroke-width:0px"
       id="path3" />
    <path
       d="M 54.348,8.446 A 55,55 0 0 1 41.973,35.542 L 35.171,29.648 A 46,46 0 0 0 45.439,7.165 Z"
       transform="translate(75,75)"
       role="presentation"
       shape-rendering="auto"
       style="fill:#007a33;stroke:#ffffff;stroke-width:0px"
       id="path4" />
    <path
       d="M 41.154,36.488 A 55,55 0 0 1 16.095,52.592 L 13.559,43.956 A 46,46 0 0 0 34.352,30.594 Z"
       transform="translate(75,75)"
       role="presentation"
       shape-rendering="auto"
       style="fill:#e89cae;stroke:#ffffff;stroke-width:0px"
       id="path5" />
    <path
       d="m 14.894,52.945 a 55,55 0 0 1 -29.788,0 l 2.536,-8.636 a 46,46 0 0 0 24.716,0 z"
       transform="translate(75,75)"
       role="presentation"
       shape-rendering="auto"
       style="fill:#7c878e;stroke:#ffffff;stroke-width:0px"
       id="path6" />
    <path
       d="M -16.095,52.592 A 55,55 0 0 1 -41.154,36.488 l 6.802,-5.894 a 46,46 0 0 0 20.793,13.362 z"
       transform="translate(75,75)"
       role="presentation"
       shape-rendering="auto"
       style="fill:#840b55;stroke:#ffffff;stroke-width:0px"
       id="path7" />
    <path
       d="M -41.973,35.542 A 55,55 0 0 1 -54.348,8.446 l 8.909,-1.281 a 46,46 0 0 0 10.268,22.483 z"
       transform="translate(75,75)"
       role="presentation"
       shape-rendering="auto"
       style="fill:#000000;stroke:#ffffff;stroke-width:0px"
       id="path8" />
    <path
       d="m -54.526,7.207 a 55,55 0 0 1 4.24,-29.484 l 8.187,3.739 a 46,46 0 0 0 -3.518,24.465 z"
       transform="translate(75,75)"
       role="presentation"
       shape-rendering="auto"
       style="fill:#10069f;stroke:#ffffff;stroke-width:0px"
       id="path9" />
    <path
       d="m -49.767,-23.416 a 55,55 0 0 1 19.507,-22.512 l 4.866,7.572 a 46,46 0 0 0 -16.185,18.68 z"
       transform="translate(75,75)"
       role="presentation"
       shape-rendering="auto"
       style="fill:#00a3e0;stroke:#ffffff;stroke-width:0px"
       id="path10" />
    <path
       d="m -29.207,-46.604 a 55,55 0 0 1 28.581,-8.392 v 9 a 46,46 0 0 0 -23.715,6.964 z"
       transform="translate(75,75)"
       role="presentation"
       shape-rendering="auto"
       style="fill:#6eceb2;stroke:#ffffff;stroke-width:0px"
       id="path11" />
  </g>
</svg>
